<mxfile host="app.diagrams.net" agent="Mozilla/5.0 (Windows NT 10.0; Win64; x64) AppleWebKit/537.36 (KHTML, like Gecko) Chrome/127.0.0.0 Safari/537.36" version="24.7.6">
  <diagram name="Page-1" id="8UkNJU-FAAAo1vcGliN3">
    <mxGraphModel dx="1050" dy="618" grid="1" gridSize="10" guides="1" tooltips="1" connect="1" arrows="1" fold="1" page="1" pageScale="1" pageWidth="850" pageHeight="1100" math="0" shadow="0">
      <root>
        <mxCell id="0" />
        <mxCell id="1" parent="0" />
        <mxCell id="Ypp8uV5iH-7J-AENpClg-1" value="Window Title" style="strokeWidth=1;shadow=0;dashed=0;align=center;html=1;shape=mxgraph.mockup.containers.window;align=left;verticalAlign=top;spacingLeft=8;strokeColor2=#008cff;strokeColor3=#c4c4c4;fontColor=#666666;mainText=;fontSize=17;labelBackgroundColor=none;whiteSpace=wrap;" vertex="1" parent="1">
          <mxGeometry x="40" y="30" width="660" height="480" as="geometry" />
        </mxCell>
        <mxCell id="Ypp8uV5iH-7J-AENpClg-2" value="What were you looking for?" style="strokeWidth=1;shadow=0;dashed=0;align=center;html=1;shape=mxgraph.mockup.containers.rrect;rSize=0;strokeColor=#666666;fontColor=#666666;fontSize=17;verticalAlign=top;whiteSpace=wrap;fillColor=#ffffff;spacingTop=32;" vertex="1" parent="1">
          <mxGeometry x="40" y="90" width="660" height="170" as="geometry" />
        </mxCell>
        <mxCell id="Ypp8uV5iH-7J-AENpClg-5" value="Slabs" style="strokeWidth=1;shadow=0;dashed=0;align=center;html=1;shape=mxgraph.mockup.containers.rrect;rSize=0;fontSize=16;fontColor=#666666;strokeColor=#c4c4c4;whiteSpace=wrap;fillColor=none;" vertex="1" parent="Ypp8uV5iH-7J-AENpClg-2">
          <mxGeometry x="0.25" y="1" width="120.5" height="25" relative="1" as="geometry">
            <mxPoint x="-75.5" y="-33" as="offset" />
          </mxGeometry>
        </mxCell>
        <mxCell id="Ypp8uV5iH-7J-AENpClg-6" value="Custom Projects" style="strokeWidth=1;shadow=0;dashed=0;align=center;html=1;shape=mxgraph.mockup.containers.rrect;rSize=0;fontSize=16;fontColor=#666666;strokeColor=#c4c4c4;whiteSpace=wrap;fillColor=none;" vertex="1" parent="Ypp8uV5iH-7J-AENpClg-2">
          <mxGeometry x="0.75" y="1" width="129.25" height="25" relative="1" as="geometry">
            <mxPoint x="-45" y="-33" as="offset" />
          </mxGeometry>
        </mxCell>
        <mxCell id="Ypp8uV5iH-7J-AENpClg-8" value="PremadeProjects" style="strokeWidth=1;shadow=0;dashed=0;align=center;html=1;shape=mxgraph.mockup.containers.rrect;rSize=0;fontSize=16;fontColor=#666666;strokeColor=#c4c4c4;whiteSpace=wrap;fillColor=none;" vertex="1" parent="Ypp8uV5iH-7J-AENpClg-2">
          <mxGeometry x="263.75" y="137" width="132.5" height="25" as="geometry" />
        </mxCell>
        <mxCell id="Ypp8uV5iH-7J-AENpClg-9" value="" style="strokeWidth=1;shadow=0;dashed=0;align=center;html=1;shape=mxgraph.mockup.containers.marginRect2;rectMarginTop=32;strokeColor=#666666;gradientColor=none;whiteSpace=wrap;" vertex="1" parent="Ypp8uV5iH-7J-AENpClg-2">
          <mxGeometry y="-30" width="290" height="30" as="geometry" />
        </mxCell>
        <mxCell id="Ypp8uV5iH-7J-AENpClg-10" value="Home" style="strokeColor=#6c8ebf;fillColor=#dae8fc;strokeWidth=1;shadow=0;dashed=0;align=center;html=1;shape=mxgraph.mockup.containers.rrect;rSize=0;fontSize=17;gradientColor=none;" vertex="1" parent="Ypp8uV5iH-7J-AENpClg-9">
          <mxGeometry width="60" height="25" relative="1" as="geometry">
            <mxPoint x="10" y="5" as="offset" />
          </mxGeometry>
        </mxCell>
        <mxCell id="Ypp8uV5iH-7J-AENpClg-11" value="Contact Us" style="strokeWidth=1;shadow=0;dashed=0;align=center;html=1;shape=mxgraph.mockup.containers.rrect;rSize=0;fontSize=17;" vertex="1" parent="Ypp8uV5iH-7J-AENpClg-9">
          <mxGeometry width="90" height="25" relative="1" as="geometry">
            <mxPoint x="75" y="5" as="offset" />
          </mxGeometry>
        </mxCell>
        <mxCell id="Ypp8uV5iH-7J-AENpClg-14" value="" style="dashed=0;outlineConnect=0;html=1;align=center;labelPosition=center;verticalLabelPosition=bottom;verticalAlign=top;shape=mxgraph.weblogos.youtube_2;fillColor=#FF2626;gradientColor=#B5171F" vertex="1" parent="1">
          <mxGeometry x="560" y="65" width="26.4" height="20" as="geometry" />
        </mxCell>
        <mxCell id="Ypp8uV5iH-7J-AENpClg-15" value="" style="dashed=0;outlineConnect=0;html=1;align=center;labelPosition=center;verticalLabelPosition=bottom;verticalAlign=top;shape=mxgraph.weblogos.twitter;fillColor=#1DA1F2;strokeColor=none" vertex="1" parent="1">
          <mxGeometry x="600" y="65" width="30" height="20" as="geometry" />
        </mxCell>
        <mxCell id="Ypp8uV5iH-7J-AENpClg-16" value="" style="dashed=0;outlineConnect=0;html=1;align=center;labelPosition=center;verticalLabelPosition=bottom;verticalAlign=top;shape=mxgraph.weblogos.instagram;fillColor=#6FC0E4;gradientColor=#1E305B" vertex="1" parent="1">
          <mxGeometry x="640" y="65" width="22.2" height="20" as="geometry" />
        </mxCell>
        <mxCell id="Ypp8uV5iH-7J-AENpClg-17" value="" style="shape=image;verticalLabelPosition=bottom;labelBackgroundColor=default;verticalAlign=top;aspect=fixed;imageAspect=0;image=data:image/webp,UklGRhQ9AABXRUJQVlA4WAoAAAAQAAAA/wEA/wEAQUxQSJ0cAAABFAZtG0lKwp/1fjeHICImwOcqZ4OpdWT9QVP2Q8drSmpI67OO2q1cwOkyqxs17jSuSg0O7eHkY0PAHLDUQOXlU6x+xt5j1YysV1LRRNsdxy+2QtCLB7Vi7Zsz4DPHgx/2OObHxca/e8K2fV36bdvO7u7u7u7u7u7u7nmf56z7PEc16z79LcoXBWkEDGz9C1iEYqAg3/3s89y3r+fCNCImwB7+b8uWZufz0CAogr2yu2MhCzZWdq/tXqArY3N7dJvdrmDDIViYr6/dbGCD3co7ExG7gYfnOf8Ahfu57/O8rvOtIyImwBv2/4sS///Hu7u7u7u7u7u7u7u7u7u73+9P2cBQKoKknbCuYKyLglIzc7sgzDyX52M8PnMtIiYAdOAT/7LVRXP35ZVd7SC11/g3QqZUFJorxRHzRJjMfAFB54pM8LEkrmoS0xlRh0rMCFkWSMw4WQ6JX56P9GEd8esmfmPEb7X4ZYkfVhK/9uI3Rvw2iN9tL+nDhuI3WPzmit9Z8cOq4tdP/BaI32WbNO3Mlcr/nEunnCnrVxVcvemEGx39i9r7zRDJWVoU/V8PsBhz48qKTdKE/+BsMSBeaig0szY6XssrDswqKzLmHnqmFwv+LjJZNA2pyQmRmCldtmwl2EpiUrqwoGaUxKS1CapZImlLak5JGktK3CGSFlSCLSWtZCv5UNLIKYkVtZCSXaK231Rx30vSiKnA2qKWUvKuqNkbKn4WNYIqDstapa3AHS5qRBVgB1mbVzFF1sgo2CNsCQX5JWXNLLnDN2SNkIKxwtasuNsmbITc5YcLW7PqCj8QNoLukqStsePqpq+wEXaFr0hbd83VdGkj4SpD3MgXBevIm7sow8SNqJuUvO3WXFBP3Ai7GStv3SUX5+ziRtF0hpHyRsjFbIFrrTm7EyRvFCxH+K7AEXa2VuJaS45cVQWO1RMnOFXiMBzdDpE4e9oJfiRx1EpOTtoljqVjB9hK5Ig5WS9zGA7su/hz5mw/funPUV/uZ97Jn+Pcbh9+49NRbPQx7+TTMdvqxe/9OqbMXtY9/Doidg/+4tsRt3tY9/DtiNinmPDviNineK5/R8Q6tXEV/46pFsCnfDxm68DJrX085naBv/l5VNaAx/p5NJKwfnXJo2vA90QPEg37NdljufR3sOxRT40VPjD1NenDY82kD3f+Eix8uOXv14XPlYaLwkUPsy9j1luih/vyEJObSR7+hYjuRZUFD7ciIubOKCl3rh1YMPtDH6nD+4cLIJ6NDhQ6KuUesPuxa/tzlKq9oP6dm/lyLO/3geaP7+vHsVjrB8x96Dr+G5ljJ1D/2QN9N3JHjoDsZ5WFjfkLLkA84mgqaqztuULEo983sckZaxUFiHg5aVBtKaO6oqRg5vz+NUSMRlJVwVupMdERgdJFN34JCnUeWeDo82qtALmCkHVpHp6dtnzi24EyRfbiQBR6bYBMsb04MIizZIpmfHCwn0xJmSNMdpBQaatEwS5SpcGUOSATxUoqrAxGvGDRCbcGIVGyYKXg92FF9n0+qIXbPh+spPw+yGf9Pkgv+n1YyaLPB+STfh8U4h2fD6qhfZ8P2slE198Dzoc2fD5gNVz2+YDVcN7294D9WOLI3wNaf/v4I6/s6xGFVuTzz7y5r9dzZ+iHbo2CJC7Sp/e5Tb981T2qdrDcPTxraZSYGYoQMSlQ+nCTl4yFLwF+KX5XfaUPI8VvgIiFLskXIpZsyAd9sa3/T8ycETTmfbzsEqdnp/26qEnf6IYvl7NxeDJ05CXJQmBXcF6O2H5bFtfJBc/4Uwhi7uiM73pEshAkFEBtrO4JfwrBpBLYHm75ZglFsDZm+WSJ/xnkE9L9JR6QnpctRQimLFjJeZ8PrOS835VwgRWblypVCJI+sONxPytFALJBU6BtQpCGwFKk7VPlMLAzti3MdiEogKBlFETZIQQlFNgziY4cO1UqJLSgF09mYUA1XP7/kFs/4Kmv+8jnf/ib5MLqbnuAj5hz+eTujYtiHAPaNg3nQpUHVjrRFWGXktieajV05qr5npAnRwSyYCUKwLmJNQF2q0bIC0Pj99xBzz5dmwObEQHmxvd026MQXk0+mX/chWbMqsiARnSgFU80tUpTBJ8Xv9lwhL7LGbAfJUS8mZp61zzpKlDrk5V30NzuGvQdRgwR7+1OrWuyl3veL888gxb4CX09l2ttt/oVI4afNQIR6wnjvA77WBfQcc41tMZp9A1NmRFQqPfga4YA9tzoTHvQ9vPtshExt9Ayf6XPnFUJHh4e4zLm9EE8tGQN0gGu3e/bFbTSn5nzOjxy0x2Gnd5LhOZMyB2eXeONaYSdxYDQsRuKaOuZ5QGna9nxxHro23qQYff7yRHizmDA0DGkKAAlx933iJ6d/Pjk/JFjZz67LvuMMSSexoALR/uiATyR6PKUf90oBBPJ6p7tLm+rE5l19TcuIvNk3rQsDoCmWzzq33YqC8lIMBiMhBOxVHpmx5YLiLy6wZcOkHoSb14qHoCog56nmFFhnz5E7vEM6DveKC7wHnBepcIcN5F8LAPOHe2LDcD/k0xVKjH6Nlr79ww4c3QxACDg08sqZO+eiVY/mjfvGgIQFJ2lPFH70fodvOlpEECJYdeVptZ6pHAUA3qON10ygJLDMpUlwJGDJH7Fm3cMAIBv96NqEnkMiRzBgFPH+wYCwN52m3qUT0AyhzHgxPGRAQGAiJVuteh6Den8nAHHjk8PDkC9+Bx1KLMUKf2UN18YJIBS/Y8oQqtMJHUIA44cXxssAFvUojz+lUxAKh9cOXviQNqOGcMc4wsOHzas/7utI+o97kdP1/GdQQOACsPOMK9ZBlp8p5Sfik8dPHMPH5qCRb9yaH38qBdthBw6fqwBgD1qUT7jut9H6z5cSk/nKrgvjsKPRLDgV1oAQNXRGUwLXoAW3Z2fyuyjuvjQ+Q4Hfq8LADSdcYVhjU6iBYcrU7kdXdLU4sOcRlR0HH/TCMC/c9JdZr37AC13LZjuyL7NAFzPgH9rBQD+bRNu88k+1o3WepRO7QtpCD5ORMsxpBsABHWOz+ZRiWVoqe2p3Lmo2w3pTN+EAABgb+pIKapaPqHmqQNooeXIfCiwMQOJaDpiMhS81ev+vOtu0LF0Iubhu4h5FJ6xGWzPICL2HbutAwDsjb9Yc/PR9qKR+WG0tD1BSKs4eczAT1sG0LfPUgqt0j3miPsh2w1JBFJ7O5HxnLGNjilLPyL2HEetp2C5N4YvOunGjWhkViVSot0o4uK0iZ5pSx8idh2nranQ4JbRsVsvFVtmMyDUNgGt0EoV0TZj6UXfOQsrPKRZp08mJCYfv+Z6pHsx5YBQ7wS0wNrEeTTOWnrQl2V5jxryRMMXo6K6dO36zguBQKn3QjT/buQYrT0fELHjuE4I1V5z0fT1WB3Nc5Z3idh23FMdr0Q0eyNcQ/u85W36nIrjlYgmb0d2EbBg6UZEw4F2pfGah+Y2oxVELFq6MMBfZWx/oLmzSwg5Y+lERN0SojLj0dSVJGKWLB2IqFnKKMxgNHPXaCBn2dKOAZXU5W2XmRbmkbRiaU3ElqWyskTlonnrEQtR5yxvMqCmqtyzhr75TYT1vE7EpqWBojxeQdvGqIW0C5ZXGdBYTQLT0XauhLyLllcY0ExJbAtQV9toI/CSJZKIDcszSvINmnU3hcjLlhcZ0FJFOrnNkrqAzCuWCCLWLS8oSMO7aE47bCL0muU5BkSqR9gZNOeFGcRetzxDxJolSjlsK9GcS1vIvWFpQcSq5XXl+BzNmTxC8C1LMyJWLK1Vo0WuOQwLyWuWJkSsWtopRugZNGMrhuwNS0MiViwd1cK2DM1YyyD8tqU+EcuWLmoxFM1YXUH6XUtdIpYsbytF41wzLG8j/p6lNgPeUwm/g2jCQg35m5aaDOiuEl9RBLN1PLBtqU7EoqWXQjzuIgLJEzxw2LdUZUBfdbjBoviTbbywJmtlBgxQh6+LP9XFEwPPk0RULYOV4UlDXqKFJ/ZqnseIWLB8rAo3Whd+uo03xuWtSETVMlQVviZ8soWs5k65XC7Oz5cOLGe9uMzliViwfK4ID+zjiicI2VyMB6Pp5R0Th7VzxVgwXtoZDjYmanKXJWLeMkwNrj4h+koNAc2FcGyjyyUc9gUMZ8BINXi76OUq2q8Hp2tIWJoBo5Tglvu03U30tovDs0hZkog5i0MJfij4yTxaV4IlBA1hwHcq8JghzJpEYyud6CBqEAPGKcDV84KH0PckVEbaACJmLRMV4HmCR9C2YVSQ148BUxTgCizd1eUkuI/EPgyYzr+HiH1VUxFNlpDZTkTFMot/32WdLiiaqzNIDUSULT+z70aHrIQieRLqIrWbioolln3vFzqmSBYWkNtJRdkSx74CqjSIQjfcRvBcKkqWeO49XuTWtiJYnkP0B1SULYnc+zYpLCiCmV1kv0dFyTKfedfaJQWKYKSD8HeomLEsZN4LBS4PeM0o4t+iomRZwLxfgLo14Rsp5L9OxczocsNjUEL4gwIeeJWKomU+794sbkr46jJemK19/szZb+PKW3hipu65xQAT5kXfW8Mb06koWOax7q3CTonenccjY3XPLzG7HVqvIK98XvNc/xiTEdyexCsXAwfmcu5FoqZED+GVe0PJyI8q36G092lpS5Tc01vnzBg/etiQ/v2/GD05JmntidyH5M0MAt2zSkkKXjpAyKxVP7z1TAUbFN3+ZGSf736dNbA8GEpJIuPuLWglhJ0sIqBrz/hOj4O5rSY3onwYcrEkeBjts3/rFgbm1yO/g0wKXjA1u5bQ1gcskZIEvl3zgLHXhZ1soLNrXUdvsEqryY4mjxYzJXgYja+PrwoWajW50eRTjCXBi5Y+mV8Eg6VaTdYyh2+/Y0zT5tH14iB/sFgdcs0Oon4Bm0XTu+ODwXJ1yEOFjIvd3dPDFVseLNhqMpZ4tr0Xcd6ETaLlyUiwZB3yI0RS7MZFHR587Qvc+4NtJcQ8LIyGhxuAVWuQGw4IK2L3tyOQEARMSo8iTxUxgE0Jf6sjWDgls7n2McLFLmwWd6ouaL2fEPJiV0RfGwqMSo0iWcI0LEn72QtUIY5p9mNAt8dqDmAOsHr9UV3AhNiTQruHgvbrRMjCCij3AODWtOV3po0CnPRYrQHJPRgEYA4gJXZc5C9AAlIASVieNAYU4zemZfr6h6yDAWieTQQC3L6C2BlxU/yAY8nRoy76J2ETnL/DQDliedbWOHsXVsbkPQtC8JFxK2Kf9zAfAtMSlhiefdEXwCqiJgHXkpafefZjXxEWUC6EKslMnv3B1juDJSitgG0pyzSe5Wx5wWchccC3jGUyz+q2GK3JyCxJynhh8pYJLLtG31aGdcXsDqROEaZoGcuym8t91oMtMLbbaPlJmLJlDMvuYisJnkS4WgCtccLMWr5l2QNtAS1AJACx84SpWr5m2eNsGVqMkF+TmqXCrFhGsOxZtl1aQIgDatcJs275kmUvdzVEnwLkVSEnXZgty2cse7MrhZsGJAC5Z4XZsUSz7H2uAJcHNKfnrjBNy8cs+6Arhyv7UoDcYBTm2DKIZR9y7eIqvk701LWavqW/ghwIX7JletPzhsWEsvZh2YdNJV7RNhno7WcxPU8Pln3EFOdlbA0J+t5iDjzv64CE6zAQvMRidj3vsuxjpiIv7hpJ0WGL2fB0YdkHTXVezFWfIK8ci1nwtGfZWz1nQ17CdBYIro4WM+NpxbJXelbFL5tmUdTFarKeV1n2XE8mAjum1hSNs5qk5yWWPcETRCA8s7hCKdpkNZOelix7yGWjdctBINh2zWoCT3OW3d2TjELO8itF1ZGURiy7tacUhcDSnaLulpPw1GXZtYaWzSikLA0pirecnKcGy67WtJxEoeZw+lF01nIWPJV5Nu84UCSbhiNAcHU0usCreyrxLNmIDT2yhkUUDbCeE09Zni0yYl6PwDCOokWGFXFdeUvzbJoRKT2WDR8R5HfbsBncoqkEz4YYkdBDdXUdCGqDhpdwaZMfzzoYEdFkUl0zgmYbN48LTHaeNTYirElK3RP0eGUbt3K55APPQ62nV1NWip5INL6GS3seMA2uXDqKKvOmJ9YDOrhFz22upVw+M6ruA7klbntAH3foucq13w2GLt09RVfp6YvGH4tel/ci174wRHQhpOgaPbs8YBOXMWVwrZUhps1WV80NcuqjB87iYqbDXKtgiGvDpJrb5MzyhDwuaUrjGuz87xL6pNTcoybsriekcaumVLb96RKy55W4vYkZg55YpPUGpk1s+/L/Lq4Pk0ownJaQ6x6xSZuXeQXbnqMuppFdVFKdls+JGPZpk655bLuRuqhGJJS0IOV6DcSeLplf2RZYVxbRyc6oaE/Kx4Ss4DZck/j2B2WGThQsBUMouUWTkaLtyP0t396mLKQVEQUzKPm+mGVawvYp3+4qU/XI3UpCHnYBadMCWz++BbZUGXphuDtOSEzMpuhLtg6M+72qmGb2jCtXCTJeK2iB1h7aWjLuNaqmNKNUd4PPUnHzOiVNS8tek3E3txXldCPsahAVPxW1Rgt8oYwLZBRtasekm9+IeJmoTdG3bE4b5z6nqKFffd3FCRrutI/J0ZZkzwTOP1gRR9qx0HSGlSi4VlzYDG3Cd4B1l91RtK4fEdvZexR8UdjhIa3sW8m6wE8VZQQg6CyOgFeGnDnBG6FvJu+eoCgmgR1zdMlueQ8/FjdJi8n/Ge8ut6MmJAGdaSc8TLq71gTeppUAnXgX+LGaqAg0Mk6+LtytqgKvCr49BDRl3mPU5GWglnewKtuN0yJP0yYELM28y6wr2ROCxmw/HirZDSdEHrZoS4DbwP3PKaEmBI2Zfj8X7KbTQs8IPidgGvtubyvJS0E72Kd+dbFumxM7Q4sR4tgXiCkxxMAO9uLVUt1jSey9Aey0RRjCv9cqCcsB8UaP7GVkesKe4GnB4yJG8u8q+yqykrBYOsVjRXrPueD1Aa2CCOdf4OsqDm1JOIyf+l+BrvcT4TOCV0W8AAp4e0sBJVHAaIB9N3HqFoXfHNICxFoVCAypiAnDRgb+JowtOkf8nOA7p4jxSvBkFSFpsI1D+/6i1E1BE66FtHEhuypBIKOgKA5UJ0YECXDkoBmLgh8dMCqowSsUdI7lgcITpbC/fwZNuSJ6UMjjoIZX2HRHViKWh+4vQlQ6mjRHa1YZsYoAQ4ohKBJB+1/31u2yz4qha1X0QMwPVCEoq2gpmWpVCD7nchpd6fUL6DtLO9+APKUK8GnRmsciEQNYf/+NNLn7t/fReE70mJjnQRn9LxSJGZmIc7r7fy+72sCVHbATvRdoxw1IojpAdNGCQl3YPQXU//aqMh70RPSf+WjyrOhXBO2rEP7nizQvFJN2L8C1w/FqsAeEd/npGJp/55jWakPclRQCehbJPi8UIQcF8/f92L9lqWILi/p83lEXWmFYEX1c0HRQSXuaG8JSdfLOCj+/NXH8x52jWtStXKFKlSo1n239QfTExek30DpTotdPKGOUAiJdJaVia0+B5S8McJOiPq0W8H9uWhelYu7Ya/aboudCynmbYtyl44KoWCRsb7moin5eFXUaqOZX3MTkIuQtOeHHhW2pHFfddHF8KBdhL0kL3zjEXLIrR+AFLogIZhvekRV/UthpoKAjLpKCYUW9ohDykuI2UpFbHTnrbguGHfaG/FD4VoNTACV9hzNCksG4F+RsBj8u7qdqctmIsyXZMEzx0miYFDevvJoE7tR0RF42UoeymVk0bDVAi0BV3+3MEI7lsmT1eXSMC/yyslzmfx2dHAjH4bRcW+fQcULgYzZlCdyw6oSgdNhGR6hsEx0Xu6RoUNhnO1qxpIPFRYmaRbQ8XhT4VimVCfzACVPy0TZMcRYq6Dkh8gRQ2isknKQ9ABbnZDnMo2lc5JyKahO45b4Dil6AHTuQw8rW0HS+i4oF1X2a7SDqCVAzToRYKKHr/rrIrhrKE/icg07ZG2An1hFgcwFtB2mhF4P6XuYv/Qh5BeyGDzVbyaPxFbGbK1Dg6rl+nbJnwGFkS592bhOdYyFrFSjxrXb6EPIQsDPJrhZbmSO0zvaEdjVSo8DDm33aJS8BaomMOWD72TKaV9tiJ4Aqd3EVhsnESOqkUvsUq5Qto319Xey8qsoEAx/iPEXOP68kUle5Opu5hQYCdkuCzwSFnlQYbqfndK9Wa55chGGvVsotttWYSSYqpXq/7s5CtnjORMbTjOB3yqmULb4wTCOmU6vVao3t1rn+dWt9aXZmpphOp2fTucLKuTqS9hOifwtK7bWgsGMuWv6vXoyLfiZQrcBnZSH4l6qEY8K3AdX231zIxdtqEl4RfiWod+CGArhZScJx4XNqKBj4rSjgPKYgwzHxHaDkvssQEfe5Rg4zJv7JADUDnyRExORRo2WI74oAVbdNQcRrjdGiESOCU0Hhh7kRUyPFQRYNM4JUDno4UcEIUVpGQ1cEqH2rW2o2RobcNjpOB9Wvt6bEqBA6RsfDgcoHYcm4VQnsMQsd79YBDeg3++4xBaiH0bMX6MHuB++xb7uInkmgCxsv4t5sFT1PBmsDCFvIOmushZ73GoFGLJV4h297EXR9B7Rig/37uJbaRNcJoBnfebAxn2PmUBtdN3jpBpiGO8/xa2sKbU+XBu3ovR6vbHIzK7iPttfrgIYMPoC448RZaieIvnmvgJasdB7x/ljzzBStoK/7A9CUze4hUkydjTai6DwctGVbJ4I5snP2OR5poPMvoDHfdwEc/F/9jJNYRuslXjoDBp+CtTHrDLMxgd4rfEBvfroHzMyeVRr/fYTem/1Bd36jF+bE/FmkNVZG820lQH9+oRdYRvGsYSXW0H1bCOjQL/QBK1Y4S1hGEe1TgkGPfqUfdCZyZwU7lkP/zUGgSz/tAOx4xDoDtMNZBFwXAPr0bZYDYH645nGHE6tIuNwfdOrLOo6gMrzmYeujNUT82Q569akNZ9CNhlqeZE0bHWR0gHa937YLoDy04jmbI6sI6RwIGvamaVdgzY5XPaRpGB2kvNMGtOw1/s8d0DQmDj3BTI3tIufZBqBpL/c1WwFQm/jfinDdfHgLSXdVAH37ooYSoBkf3RSrEZnYRdZ4f9C5d15QdHpl2KiJYxWGjYsI6xwGmvc6/1YHHMaG0005NiZC55G38hJoX9snOQYUvBgfiVe1O0qNhNYQeUM50MFNTxlz2loOjUzuaXKQGh/NNBHaOdIOejjkD8N6mouh4WDmwuCY5dTESGTdRPBzEaCPO2R7Qm+rNDU+MhYvlA9V1ddmY+PDo7GFQ8T/Zxjo5HIrPMbphfX89EwkmBobi/05NjaWCFLF6kbbwivvDraBZu6a7XEev60G6OfQGEbdH2YHLf3maS6l1ABd7RN9i0NXo+2gsSvEuLjjSggDzd10G292Nwf9bet6li+XuttAiwePusGTB5NLgjYPHnaDH3kJlUGrBw+7wQvXomqg3Us7bvLBvbIhaPnwb7N44FrRGLS9b9dd9OUk1AG9H7Eon7QsRzjo/+qzbpB1oIcvyGDAe5tcBN1LeAkk8bFhGcSkRZcGabRHJdwkI2tSHZBJvzZzbhBwOeZ1HxBM39bx1y3t7PQXvEA8vZ8fu9dtSa70sc1tIKUVei+6ZjF//9YtHITVXv/jxZctImPeoGogtbX7xu5zmurWxu/blgXpDXguOm7PPc9zHkka1am6HcTYXr3j579sOO30hPtHVs36rFNDX5Bp76qvfDBw5OTZ/0hJO5iRkXn9ei7euX79Ysb+lLWLYsYOeTeybhnQnABWUDggUCAAADClAJ0BKgACAAI+USaRRiOiIaEhcRoAcAoJY27hcG5E/pH4Afof9V8M/z4od4D+AfgB+gH8z8gD6AP4B0AH4AfoB/ZrX/yt38A/AC79hr+5/3H9cv3m9A63vVP71+tv+J/6H+m6hjbD6Z+S/6//vv9F8nvC+Pr6y+0P3n+pf4n/W/4X////f7x/5b/R/k78jv1j/wfcC/hv8U/tn88/yf+W/vv////P5p9D3mF/p380/0n9s/4P/W+Xf/a/5j+4e8H+t/5T/df4D4AP63/MPvf+aX/Gf//3M/8b/z/YC/kv959W3/J/73/M/8D/8f8L7Jv2c/7v9//2X//+g7+Z/0n/fftv/+/+H9AHoAfvv7m38A9V/ql/hfxm8x/65/e/OfqmeuvKPeW/BX8b17dgvAC/Gv5l/l/yg4CsAH6F/Xv1z5DfEA4EygB/Jf2u9RX/w/1nnl/Mf9b7B38s/uv/Y6//7seyH+tYxJjfLqG5cv7HY4qkcjPHGmHcuY3y6huVt0iHMsmknRFD1rMfs4n2Lkk+KgulQy5jfLqG5cxvGy6KsVstnrpOaMt+R37cuY3y6huXMb5bEldmUkXTlEgeQxMb5dQ3LmN8uoaQ2GWodREPINYzcGwO5cxvl1DcuY3x3lGXvG8S8qvuZ+X4VAb5dQ3LmN8uoblbdMm1oRss3jBvxHbdkzqs8XVbqG5cxvl1DcuYB5BdXOZHYUV6RYK0pj5d1k/XSoh7cuY3y6huXMA8gurnMbvqQTSRz5O5t+zKmYLP6Ydy5jfLYkrsyl0MQjoy2Ukw7dBQJTUMyLuoblzG+XUNIbDLTdZDiKq93Dqu3mFC4vty5jfHDY6R06t5Rl7fafo/o+eYRl7bTHLZ9p75QYeAWfe1o/30wLiPu6HVN2XkgOlvwtaTDcSj6B6I7WGLO782Vtoc36YSvt9pDl//n4t55oPWCd54e5/tXR9/DS3kL26lXcNgpnUjkZpL47DL8fEX1575V/qOTzUyOSV2ZIucxgkWioXgaLT9igcc9z/cv4d6S1VtEZncqhLcozQb4PzUuDKgzdy5jfLWt+3mkC0cVZ+JiZTvWy7wnr25jRzwjFVn6BCFx7cAs/pUkpAeIT5/mALGqzfAySQs3tHj4gPvLLjWOhh3LjAXKz8qFY9fbkb2ViMz4VeVy0l9wCp6MAIibA/lmUuhh2/IrRCEWDEBr9vehYwTLVigJ542XkgOlj2RB9jfLo7vLa5dv9i0Cwrsi0s0OrIHQrw0Jph3LjAYLUBE6c4LEJHXy5jQxohBuxsAQFzfph3K26UkvL/ai8vpLQsk/mgTslfFWps/aAoc8cQey625cxvHPm6SY//pRhNALbl74xrTQyVrLjyseqd+eXsWSf0w7lRz2xViFZotAodm4a5LffU0Gl2h/44ROsVl+H3TU+dL7pUMuYzoIsc8xWEdo+6iaLwbV4IVIo1kZObjJrKGefNg4giXZgFF/yGJjfLqB+QNGnCxl92+6RUAtj3DIFdKtpzJnOu0gH9XIRK+V2jiqNMRMSoZcxvlsrUL3cPLrgL35yBkph0Krovo9mYd7Rc1Tl6vwA7VXdMbv5yB3GLsjPHGmHSlJN8cr0w0uA97HAXQw7dlHKnTV5Jr9H2OyM8caYdyuQy+vwPZTMFNepq4/isAcdIb7/q/5X0brLFWO5byB/22D25cxvl1DcDNSHr6en3g6lvlFaPqMAmVMrSb0haNzZlLoilaguhh3LmN8uoblciWxqGMtGqudZsF2LaOKF440w7ly9AA/lNeBnZ2h5IpPtdfbSvl5xjsZp8B1ki2OuArxfTObog03vOBpNXC7hfjtZBkVJxQvdPL6B9xD1FkElPuht2YGENC2MLF1gKV7KMqd4ZTTEAAAAhvJfszHELkzZ/FiFi2gRG58fRqJEmk5ocDa4vQqXiI+WVj14FMiQJGuScnwzb/1EGGl7K/6iDsKKxtNB1PPRUyqJII3zvCR9dXznzIjPCsQ+d8EgcVdSL9zHvX0pUBBP0OXzzsbExaJnkcUzNsZs6sYpyq1dl+LuBUJB16rOq3PCqejctjE3zTis4Y2AAG4QB6iOeMJcj4uJmfaTzVP+khrBaCJmy5zCrSjbRcfAupIrgPcVaht2/2bBMXPVjILReYcX14r/t4FHA4/OOKQ11LISgEmmwp6/4FD/8ilbeiLr7nZ0+cFTp52gVX3lHKQAAaJNWne0hoLvEdNukZDP0H+foKaxuK1m+nM11pPE2GiqDOeVsmTEkAdJYn3k93Hff+wQ3zjq7j47uidt9wbO6K+T0tWAABpAu0UNRIGiDuWfxTYUeltI2PwYUu3O78Mr/wul9dLqiJDzQY5SQFpljWjmRLUABwIzW+Bh+hR5D//w7DCe/JHM92nzwZqTaj5QudFnWyjah1rv6AAOXqmCQUrmkNIweJulHKjruSSaY4v//72QiAA5WJd7fz/wPJ2y+yrizpxgn4B+e6h0y/6+ISZmASxXlfTfptkGKoR39d6qkuDY9LruhvJ7EglNYjlgvAAAIRrpwzcTVRmwGMrC+4Cuc+NT8oZxcrH9ptLOBo4/5i1+xfVAm6gQjwglZyV/b0DhMBjQd6Drywjls8KNUM8VjDv1YpyEkyi84IVm7slZ4MNWL6yQglBNvn+wx+rAva3FHnYoqsEk1AZkkd4RyAwqZY/dB+RBg0KiO1fKKSGGluiuL4IADEjRwUM8i4DmWHilLeXlrvM17sxjqIG9LRI16AV9LYbbrrmQL+m9ievQQutzR6HDwrm//xycCSMyPvJPfKassQQqGqc5nXekBr+dcg4g0Ayn9VHCZ7e+16ZcVAkfPbzmcGXNCG+kTmhx9/IG7qoZ/h9dnw7EAucO6QVs/gT9bCKkmtKDb9NF0lqvOE5xQ568AxOcPC9Hv9FKftjv2xHGvRpr9+0/POOD1Luhz2ewiW35cmkTh8p2h5tVAzHrVW+jcFdcn8ABvgu0EwlAPNv7sw46oRQxFqj6tE+BDMppgcLSCy93ftEU4UK1aWbXvkL7roD3kQFywRDLttitKzB3FhcbqR8xqd8d8yE0ybFFxkN4zZjr5VGEWrwe94u0RQaCG9f/dshGZuPGpL+5Zsl+QS8MXqh4gROaJdxdBnhZKcU2Fc6MrP1EqKAAKVaYQBqdOE5seTSRLmrbGmLGSi5UToF/kYLQz6xeBHZhwsSyVB7W5ejIvJiW5mrJXHfwU92Zn9ee2KRJotVvG4X0N4Pg0AL5rS7s8mZ/oiu4ZBJ7bGo/M+3WRVbKE0YbpsewRlHlfdEzXRMyXtofjNxUnUG4BTmTC9GucbYFI5iTO3TEHEjeInnCaW89gqtfv7WIeJoz5ScbUtbrYVnNBXz4q2k314cA9erZMEt8X+Hf6nzU6rOARUsRk/C67YUci2ROyEBgnBKM47JWpqXbozhJN7GABkDb/bDoEAfCtT0QE8TmFd1W/tKj+Ncmb9lahj56Yj4DaC8FuBpK5d0b/9qgIGZpUzf3m9jjWxF+Nqg6R/oYL1ysVZZb+f/wZVCnKB6qgFkarHDrvwPTo/zv4SJO8In86PxQW92enzaAI7YZ9hG3NP0supsx/H0DUwNuzYNxpQo596PXAQJ+0zNK1RxcyySIqKp/2m8qM4gDKwmANpc1Jh3NL8g30Bo+EC83ZLN8ezm3VQfevf6npEubMK+Lm+A+vFVFAGV++P4MFmDaJBPJYqmJcfAYfYM/MT3sdgvSaQjNP6lzBSQ71MBnX4FtTchgo6YfxRR5v38uqUFk8oLTXCmzy6nKpgFxLXwhLcQFkKZDgHCgOtIpJOYwZ0ddpYDOug4Ez45utAFcni0LvFbmoLRmnqfMKHgR5oP10r5uZ8q0rrn/UEpRaFdbfnRXs68fcjaQ+28IsNIxWn+PNIV4ZJlNWT44A4TqxSH6KoaJYGj8KqSyLjcDn0GmKqDhTz//eunZX5BT2EoU2XBiS0GTLJ0BIsMFsTD/j4dN5WVXWV7CYx7SObLSc/X5wrB5QnJeqz48PXaw1Wj2UFXDItFYGYT4K29muUeMm7R2wXxZnX48ev4OQNXkAgmIQG8+HAQrCYIfM94TLZSK3UgKyuOIpmlz1XayJ7UJ4OQyt/svN+Ww1zNCgPoSq+4HMS0s1yTAzuNbX1kDD8z0V3EEU5yuR3fwplQWGG+4zp73C3r1/08hiRjFKnHxe0rW3EBmoX5N4o0GrsUdCDPEMCpPOrQ3PfwfPPV/x0V+vgfgGpngQ6aIvgDbdNcw74fo9TeTftRpMu5FZps8w85M0V37DcowQjEIpw9JHQwNRwemA6EMAlr/YVtNrrSGt/wuPL53BzTh3bdN/utySwwAopNK06W51qcH2kIXS0xeq0gyvW2pvcSFJNFiQG2UR5vJ56JGGZb8d1fE1haGugIk56Pt/bGISWV/HN8pFcBFa3Xl4EKLSZelhpMvdMb0/YOjaxWydcboUWmE1wHZenRdDFJj9fegpiy28Gm03yZ6OAOE6sghjGHzM0t0TBWD7lhibZxf91Z0QbAMEijjLBdBGT5iOuWgroXmTj6I7iRmpllVsijx9VeLV2gp1vCAMxRMJJNsC5fnexmAAwHFiVRSqoSqx9UQhqhqDt5SDEcfslzIl3GvplMVnDovp4UrQSRAQQ/yZ9q7GZRvnItvWtsM1SCON4FvXoaLnQb9vzn3Nre6HJlD1PqfMUTjhLrESYeA3x0AC23H3oWDsVt/Vno7LrW7MyjwGMY5/UZ5XUBmfpFTFEAUgmzjvYjL/iXGr9XEpzgOwy5mSOyMKnadaVVv0WY/+1qQ2M8KtlgAe5b7M9/3I8X5uSqROxXn5SQIUhAAedwSqTTz1iyNUAJ6T4rcftwqEm0AfXVZ+CiVu52H9vwp27tfSsyIuUFE6FswBe4vNQFtUToh7zyHzOlsJqHXdd2gx0zb+2NzZI6A7ARIB8Ycq2pZZlWaD1n7SCSHEuq4b7pKzfkhmJqoqncCkQprFIYWYwhlGchwwVuvSY1xvqf+sFeeTK9NY8ghg8BNyZN67DPB3ZMT15kkF8+TbNzIB3Kpa+PqWLdOuEyOTBCnVrNW244Dro9Le06AxiLXkQG4cORsNJwRn/lJP/dxJcu+o4qjJaM+GLApxLFexIQ/7rkkHnM0eBX7G9p1//Tv+fN/ixgapIKMAwBuSgYBMThSGeGcuhm/7AvwDKPlcpXOV9WhUOw71wCeIjkkAVvWlCkC2jyp+Qt9fri1XYLNe++XRIX4hEAYV51UseL4d5uvWMzEPqkDGvw9LSv0hb89ElSIfY51ztb/7is/NH8y3nTIsZndF0tdJY97UHjyeyD60EnPELLs6IHwKXAJec5G/3uE6BjQEr/Jy3083wSJKOzP0FM+cqLRpp9RD7P2rwd7732sDOIlYm92jA4xYPWUowBdVgVSZWCa+HiT/NQc4NatkxRUhKuxYKu99+vgK+DnRQY2xsjChiKa2vK45HZaOGw79CyP9cak89Fncj6dS7RilWIp+tfGWU6hkqrX6iZXUnf99PcVl5cE58V2kpStrPBqNg5d4748NzySaOA+pdAcu8Igmux5K9Qrv4HKQbewuMkhQUNSVcsXrUXolyi/nSMH/udLSV6kDq3VLDkjqiO3Omhgb4WbafGQK6afUWQ/VU+0qtwvDeNderUL0aE3UIFnXxE7lfJoxQf1n27u9c2rZe+35TjXnIo2tXqD1mzJtvaBbfrQQprZ0s/zhBBGvXV+/X/99Qv/PqEFUXsSviBkEb5KSvKb8wTXOI+BZtivzcLp+YIe1s8nseytUNgQkw0GmSbnGFixCpjCBbMhYRDQTqzeJktepPYdQ64NSbWaAmjyKB1Y5ISwpxA8nYERD+cJbgHkkxe645SapLDKhvHVzgDbQXbqJyWAzro9gv2OT1g2VSklBed8eKmpwlQYWBPo7CU6NcYgOSCJ4qBB5vG0Gk45qZuINJ39tMOw64I0fQnCnU2j0Y2tzPIjnuWdm0iEqOkcop85nLqSX4aj3EHncMephhMjVg6ojQHZeHSU1JsA3LF4RJIisqLArr8tzvA6f5L0WvCw/ST1MgAMAKVYgW/oERXHmNWW3wivFvBRhDfXXRABuUOJGOq0qVg/kYSEblf2b717+gauPPMwDe23npsewRlmD3LSPJ8zcq8DWUuYMick7pIPsoB8dJqI0MtmdRgqtIpGDABkPma73d+AJSIMdqQN1e8mTL4DRBj0Pl99gPSVis55XC1BzeEsXlR/TrPgOskWx1wFeL6ZzdEGeVFN34QXiew/RecKvcAicrGpwGWzWJqzD9RJi8xF5IWYiB3Yccel5kuqwmbxWDSzgfS1YAFKGpduvwrUW+V9uPUaguUYMWTBK6cmd2Hd/wrKwuTIWm802uxET4eThawU9OyJYZV690I0BVAicqxBrXOpfRT1idy8I/Xm3mELJeBIjZ8KlBl9pCpPXwQfNKnIfhSXHagVDi8dGkApIwCcdBW4HNJIg4DAJqRTElKAQp5qkjwlo8cbi4+o3J3D/W+pUmiaDOUMH1NtyURFs3M7ZH6fb/QgFd5HvdRzIdw3ALIUnxTrSJ/aW79bn/+yicJAsjb0Fe6o9m1dPoT/2sJTYp65SSjwh7kmg7zWkJitkFSBVF27TLrlk/zS0Y44Im8ryZ66gS8vBY9WnxrKEoyW0l95vP7GFGpatr2SlbKjYsCco81zEQ/skQC2FqY6nlWDbp3N0+TtOvwoMEtqE5tDnjgMEbkYmHFSbPTElousspTIpg3Ul3FkFtcI8qCiIYZkAiG/6QbetDF3Jf1LLhDNXAtz8IzFBsYqvHXtO4gTjM4Qy/Qd7SFxjF/aM0n8ko+MAsS2mIxQx1UvDh3zRGg9Qu7BheKsG+z7r9qgStRrK1eQgChTwUoVrf0+Lhrj+Oyt0ZnI+CaucRbQBEzjpGIV9qBgSofaEXddC2G99XQPocqGuZ/9NbwMeY6oRyiYFOYI2q7oUbfnFVqbJhkF3cz/Fz8YuAecRXPPfbZd7RIumWVX9Q7a/RVZFWOVVQrfC96I0cYFzImagR2PeINa7hiKrRBLfoDttin6Ebk5prRXPtiLI5NX5TVOR1cSui9zDFRxQVLY/sn5kIMMgcHvXsxu2fImQTOnjqRRyftIAEFu/Uq+LUZyHDBW69JjQiGk7jVu7TwKE01jyCGDwE3Jk3rzb7Pt6+sJtSJshco3xZi3f8yCuTV6vLTdzaEdTQiaKhqENHlX4qzPdLS43Hua/l8IueLPVFSR8eUn5WNTRj0FUREgxcxQMMqZDn9e3iO+Cvau8rInqoGfZRSirm0Q1YKXmDiX6veDVBxSGf7x8/cIKglxSJKx2nxtAzXhX16ISL/IMYIubK2haAjZNqAioGsDMJDWGUwiCbomblUure3mJXXnFRIZjisKNjwO0LXnOgoLKoh+BioAEPuNRRV6a/j2r41CzwX0Da5qArcMPFriy2EClVUSKiRnuG4XutbjR/cbHeyCZ6xT1j24qnQUqWa3SlSSFQpTt/YIu6vqQ/6lYX0d6uo//PrwLpweqJJxJ19Vy6vPrig8pXrMJCwAXw6IuZ6uy5w9mIKfu7WTV/NFdRhupIsKOdFsfLnG4N61LTOA61i5lSH9+RZLDERDrdgoh4nlnRVpUlPOzQY0hs/PQIXe0vSufx2ppYD+vKq86PE04+yrtmCFjUJ/HyEdHFcuFomzba0xivYxqnXhafExbtY84irgbBTpmVNoFTMo5/A4FbavVBiF8rkhZKhshHwVN2TCfMAYeTFH8f0Zgmhwbx5Wk1JdrFmsBumYrDo/XCtAbEcZDxfix15rTkP/WQCILVYOdaSEuy9dLVFtfOiZSqqT/97NS3mMG+o4RUZ1+4TLKVflwCn5sbkF3h4bOhbeYP+HAdje9PNMCBo9nZxf61MQquOSlF5+Lf6odLd+f1cvES/SFfZPozog2h1KfRK/fLmX0/yxvR37PoXlL//EjjGd6TPyvTZPf39ZYmxZrQMnxvBfd3YwTPMw5u53ozqNLc+1Dl3JQa0I+YasH8NbRTpR3ThgBwqWAKzAgbG13Tey6skykM7IqjXUNBoChLpUSNfD2cfhbH1HFuNaJ3g+u8uRYrWsEhnwwW3Im73eAwUS519g6ouIWEOoG7D14r+NLjSL98sFo8HsHVNKDZflkQdH/Y9Bii5X2JHpYlsQBKl+8iEUQ/Ft64FAR5hXQmuCzSLU3H9a4M8hOJDum4qOvf36hXQukjHGkBQTJOlD/3LpSWwt0R0iBe0tl34XLCocR0QwPBPlVO4/ZzrRnsSDxeK+CJM7vlhbylgNEfmuVVavXJDYB78tpv1IBJccZy1SHCNlzwP4AS+TW1trkHF2QxkMdVyzEFynOXpLQ6SGvaqDxl69lMYAas0LV2hvIqZpkMzdEQNAntbDBBccj9eDWxSgm6YZSpwRGXhDVxLJ7n+Q2K7fMg1ORMRDuNUeyvUhQNyqZUJi1fsWkFGQXEZfn33QzC80f3/ziiNKq3W7bb9HY0mRUme3accGoZFYXv5wFFYu9cGCZ4NZkdYnZKm9dJyMW0VCyWZkpyDIzYDGjOEvu+FXZSaTEHidc5Z2pQQcaY/ioQOSUUDOyA/V8hs8N2NJERaeTwkvVf247UU05EgAWhiRReFDBvp3AXLtoQjjA80hhUlIABi0Zf7zaBNeJcLVLaEy2v9JiyyXxv99GIJy0aHDspZrk5c/4s/z1TXGIXm7aiPHm9SmiZltSBbmdND3zMQizAuo/qFpUyvkBmthM1+8Cvf5/ZpZhu0/dSUaFRS3qxxpOf8DizcwCIp7lyDQRfJ0Z8KoRxQZm31dSLiO6VECRiIls/wMx3AC6oEMa6wvw/YoS8w5peDwUZIkLfe8F0xDitrU1NZEMeYre5QrKoggC1z5gOKIp6yTxjWScTzAuP7+0Ueg3wRVAfvX6B1EpxLlbhUC207Kw8HbbHzSA8KF+ndSYUAM/WuoUjk/4ZurNCIqMD6IXJwbYOcubvP7CVJhqrHYmYiCbh5fq6VtvhJN8FdITqLY2C6YGab4zkEiJnBHzO1FsVBk4k9c7mCd9NYvN5uQDEHAiEfq+2YAlLs6l9nGh0+/KzQv9ldapoiOLoh/dWMkfva4MlRHFkY9KkbhbK+EVLjOaZPhe1wim6fRDKfdYCCIb1/8mAt3rAIprS9zMXSU8+aVDoJ988GAcqAIGna0zdwa9ojcGW6xNf4xvnNyKZYGVQ6hMnl31TwqRM1cCv2VIIVHkkApoV0TAJKhwR/GMhqH2/YRfi66q1V7FlYqk+GEUkGoGTW5y94J8b7qCvJL1TAL1+zy+M3WyZo/hJtign15kHZCG4AGOleaRyluDCgVbGi3w/wDXQ0YzTZcsYDngzafkeOHGUpNjq4b/E9RV91WY/r9JZcIsOQCATZ7Zcd4nALTa+/CBmti5yu+qEEpm/ZbgP332ELOSJTufXGSplvlYkdtVYYqCnK5dAD/tqdODayX1h4ubhWLl++YiNEa4r7yQk8/hOiw9Az//gWKIC6Q3UKuiFsHcW+dULLBLcYMEeCrVT/U3xHteD2x2Y7RPoSQa+2pYAWKdueAGT6l4N90T/vYq3GtYo//37t0WjmM7FhDSW0SugpIfANwhMU9SHCVF1f2pBAMfJFmvBmdqCILL7q2i8WgfOG3dxLKoFHp4UkJUvtivw2bsSOuIMDF110+54+ock/KFQ/QOgGPO8SnMSJG//YGSlSbtMKplpsA2ZNiVqAySGLrU1g/9zpaUsqnwSd7PshavqNIULUtUenJts0AAUC0wSMbr3w8Zc4tnbFnW5fTPiTPDdZWyyxnc/bME1O5Tx749qnCVbkXVnhjv7IG4cVNSRtda2IK/jPHrQybVsZnOJWe1+SxV/4Xd8DOGFFW6EIlBUg3lPcoMs6fOsrR0d7LzNqG7gBz3vAnCmAy/01NqCKCm2MbsHLsvF06PmDu2b+yf0Y9HmwgGy5kgKrFhKHa23an9k6qiuiX5hn0NNMxRDuKo/FQRLX+/ilaF6hejdDKhkwaSvJ7EhAcmNKpJhC6ZEMyFbfF2cIKi73nfIb1RL3Xz+l9R2uGB5HKT7zGNZ2dl4AB7E3S0qIrk3W/1ALH5O5osaBxhZ1rCHrhxAxZdn8cqW1wtYMDTFRN9Wi2yYMszP5si/o/xBO/yCeVj5zoaIrknSLLF3jfPMD8cB3nVtiThSxA84n1zU7QRVC9ab0ESt1LeIvPAyPRE6zbbdVOYzBuvcvtRDMUBA+lx0ov1pO5BMWdy6xGMptQowXtatHmU7aXSRtzgf70WO+j3LxUXdRDloFs3z69y2pwbksjotogd1AGxg/ypFFthr45R7zqaVsChMWSn2mYFduT7vz9CWdN38RvjKlP3tWljuVzapxQ+iBilTbBji1u8mlozigbqUb3qxcv5CrU4QCuEO1mB8BE45av2M1QXi1T0rzZ/u4zV0TcDpc2nR5yuk8ZrK7b415n4QQrbOy5NJ/k6yOAAAz+Rp9OU958WJcNpoeL0RPKtahMlV3nwjRa//GUw8TlIiNfN/qKAZ6FyFfGpubgFpWc7pbUVw/8peOTBcLaGNN442MbMomB+PoyH3cKWMScL3elA4fjUIOmwclM6YtzB7M1iL8eFBFyzSJ4H0y7g7VjB0ViR+/Sl0h2WeBhacppRKoFyIJmwF/sG3Ndm/UEH+r0MQsR2KfZS9nXUW6YD9YHv28SsS8qkMlnjPlw6zLnWmmRarQcatoBw7hPK/qNyrWwRL2N6E+YYB71sebQUKH5Ynz9lN5kh5DCsP00EPcu3glFRWV0upQptQR9EMqp4AAA8w0xC4fXJrkBFM7eZyhGsYp45er/u9NAgHYiIait41FXBKJYxwHXYuzPZcGzHH+IykEMAe3dDcTEXjplxZIz6TNDUx1yCLPgDB8V5/PPE43dzEr+moPfHBXpn6JxBVkeKLe7ASwXu1sTPSue7G/oHYRXPIhyJd/K8Pq7JYusx71Y2tM32csbrsUdCKvT3YVgsqMEDJoNxyBxd/EGBwaBe4dsP8igAAAAA=;" vertex="1" parent="1">
          <mxGeometry x="670" y="65" width="20" height="20" as="geometry" />
        </mxCell>
      </root>
    </mxGraphModel>
  </diagram>
</mxfile>
